<?xml version="1.0" encoding="UTF-8" standalone="no"?>
<!DOCTYPE svg PUBLIC "-//W3C//DTD SVG 1.1//EN" "http://www.w3.org/Graphics/SVG/1.1/DTD/svg11.dtd">
<svg width="100%" height="100%" viewBox="0 0 24 24" version="1.1" xmlns="http://www.w3.org/2000/svg" xmlns:xlink="http://www.w3.org/1999/xlink" xml:space="preserve" xmlns:serif="http://www.serif.com/" style="fill-rule:evenodd;clip-rule:evenodd;stroke-linejoin:round;stroke-miterlimit:2;">
    <style>
      @media (prefers-color-scheme: light) {
        :root {
            --foreground: #24292f;
            --background: #f6f8fa;

            --logo1: #cf222e;
            --logo2: #9a6700;
            --logo3: #1a7f37;
            --logo4: #0550ae;
            --logo5: #795da3;
            --logo6: #bf3989;
        }
      }
      @media (prefers-color-scheme: dark) {
        :root {

            --foreground: #f8f8f2;
            --background: #282a36;

            --logo1: #ff9580;
            --logo2: #ffff80;
            --logo3: #8aff80;
            --logo4: #80ffea;
            --logo5: #9580ff;
            --logo6: #ff80bf;
        }
      }
    </style>
    <g transform="matrix(1.20833,0,0,1.20833,-2.5,-2.5)">
        <rect x="0" y="0" width="24" height="24" style="fill:var(--background);"/>
    </g>
  <path
    d="M6.615,10.032L5.55,9.43L3.22,10.05L2.7,8.12L4.47,7.65L4,5.88L5.92,5.36L6.5,7.69L8.07,8.577L6.615,10.032Z"
    style="fill:var(--logo6);"
  />
  <path
    d="M8.088,15.441L6.55,16.31L5.93,18.64L4,18.12L4.47,16.36L2.7,15.89L3.22,13.96L5.55,14.58L6.622,13.974L8.088,15.441Z"
    style="fill:var(--logo5);"
  />
  <path
    d="M13,17L13,18.88L14.71,20.59L13.29,22L12,20.71L10.71,22L9.29,20.59L11,18.88L11,17L13,17Z"
    style="fill:var(--logo4);"
  />
  <path
    d="M17.385,13.968L18.45,14.57L20.78,13.95L21.3,15.88L19.53,16.35L20,18.12L18.08,18.64L17.5,16.31L15.93,15.423L17.385,13.968Z"
    style="fill:var(--logo3);"
  />
  <path
    d="M15.912,8.559L17.45,7.69L18.07,5.36L20,5.88L19.53,7.64L21.3,8.11L20.78,10.04L18.45,9.42L17.378,10.026L15.912,8.559Z"
    style="fill:var(--logo2);"
  />
  <path
    d="M11,7L11,5.12L9.29,3.41L10.71,2L12,3.29L13.29,2L14.71,3.41L13,5.12L13,7L11,7Z"
    style="fill:var(--logo1);"
  />
  <g transform="matrix(0.025,0,0,0.025,-5,17)">
    <path
      d="M584,-56L440,-200L584,-344L640,-287L553,-200L640,-113L584,-56ZM776,-56L720,-113L807,-200L720,-287L776,-344L920,-200L776,-56Z"
      style="fill:var(--foreground);fill-rule:nonzero;"
    />
  </g>
</svg>
